<?xml version="1.0" encoding="UTF-8" standalone="no" ?>
<!DOCTYPE svg PUBLIC "-//W3C//DTD SVG 1.1//EN" "http://www.w3.org/Graphics/SVG/1.1/DTD/svg11.dtd">
<svg xmlns="http://www.w3.org/2000/svg" xmlns:xlink="http://www.w3.org/1999/xlink" version="1.1" width="192" height="192" viewBox="0 0 192 192" xml:space="preserve">
<desc>Created with Fabric.js 3.6.6</desc>
<defs>
</defs>
<g transform="matrix(1.4 0 0 1.4 95.97 100.95)"  >
<g style=""   >
		<g transform="matrix(1 0 0 1 444 444)" id="f1db4655-b0bd-4632-b8ef-225b19f6e8fe"  >
<rect style="stroke: none; stroke-width: 1; stroke-dasharray: none; stroke-linecap: butt; stroke-dashoffset: 0; stroke-linejoin: miter; stroke-miterlimit: 4; fill: rgb(255,255,255); fill-rule: nonzero; opacity: 1; visibility: hidden;" vector-effect="non-scaling-stroke"  x="-540" y="-540" rx="0" ry="0" width="1080" height="1080" />
</g>
		<g transform="matrix(1 0 0 1 316 437.45)"  >
<path style="stroke: none; stroke-width: 1; stroke-dasharray: none; stroke-linecap: butt; stroke-dashoffset: 0; stroke-linejoin: miter; stroke-miterlimit: 4; fill: rgb(72,171,205); fill-rule: nonzero; opacity: 1;" vector-effect="non-scaling-stroke"  transform=" translate(-50, -44.83)" d="M 15.619 12.907 C 14.475 11.938 14.613 11.214 16.031 10.735 C 20.323 10.725 24.616 10.722999999999999 28.908 10.724 C 30.943 10.724 48.363 9.952 47.483000000000004 12.237 C 46.853 13.872 42.306000000000004 12.946 41.069 13.034 C 37.309000000000005 13.832 34.201 16.899 33.226 20.597 C 37.302 20.672 42.414 19.744 46.272999999999996 21.361 C 51.946 23.739 53.354 31.287 56.294999999999995 36.081 C 61.68899999999999 44.869 69.50999999999999 52.147000000000006 78.65899999999999 56.901 C 83.532 59.432 88.76599999999999 61.251000000000005 94.15599999999999 62.301 C 101.568 63.748000000000005 99.823 64.836 99.812 72.528 C 99.803 78.792 99.606 78.57300000000001 93.316 78.57300000000001 C 85.784 78.57300000000001 78.253 78.57300000000001 70.72 78.575 C 57.162 78.575 43.605000000000004 78.575 30.048000000000002 78.575 C 20.950000000000003 78.575 4.406000000000002 82.095 1.2270000000000003 70.075 C -1.1269999999999998 61.173 0.10100000000000042 45.804 3.2220000000000004 37.156000000000006 C 4.799 33.196000000000005 6.647 23.733000000000004 10.296 21.291000000000004 C 14.254999999999999 18.643000000000004 24.502 20.626000000000005 29.15 20.616000000000003 C 27.363 13.371 21.494 13.619 15.619 12.907 C 14.362 12.597 17.488 13.133 15.619 12.907 z M 31.135 19.445 C 32.980000000000004 17.367 33.461 14.885000000000002 35.84 12.995000000000001 C 32.775000000000006 12.945 29.709000000000003 12.945 26.643000000000004 12.995000000000001 C 27.188 13.598 30.21 16.649 31.135 19.445 z M 11.574 25.24 C 8.79 26.056 7.083 33.84 6.102 36.199 C 4.186 40.974 8.746 40.486 12.109 40.489 C 23.273 40.497 34.436 40.480999999999995 45.6 40.494 C 52.143 40.516 44.83 25.069 41.799 25.157 C 32.54 25.149 20.562 23.1 11.574 25.24 C 10.843 25.454 12.176 25.097 11.574 25.24 z M 61.771 62.174 C 61.785000000000004 57.94 61.768 53.703 61.778 49.467 C 62.036 48.092999999999996 55.849 42.894 54.861999999999995 41.791 C 55.008 47.526 52.68 60.109 61.771 62.174 z M 71.306 66.199 C 71.334 58.068 71.869 56.601 65.154 51.818 C 65.094 55.572 62.973 63.891 71.306 66.199 z M 9.207 55.801 C 4.811000000000001 56.92 5.9990000000000006 63.912000000000006 10.554 63.36 C 15.917 63.146 14.518 54.205 9.207 55.801 C 7.335 56.277 11.167 55.211 9.207 55.801 z M 39.727 55.801 C 35.018 56.975 36.81699999999999 64.416 41.541999999999994 63.299 C 46.492 62.41 44.725 54.307 39.727 55.801 C 37.757 56.291 41.696 55.211 39.727 55.801 z M 79.678 68.789 C 79.76299999999999 61.568 80.455 60.851 74.253 57.635000000000005 C 74.253 60.846 72.619 67.096 79.678 68.789 z M 86.918 70.32 C 86.85000000000001 64.258 87.992 63.18299999999999 82.31500000000001 61.19499999999999 C 82.301 63.945 80.701 69.611 86.918 70.32 z M 93.032 71.213 C 93.011 66.324 94.92099999999999 64.059 89.104 63.321999999999996 C 89.123 65.766 87.066 70.791 93.032 71.213 z M 98.014 71.639 C 97.991 68.053 99.973 64.018 94.813 64.535 C 94.861 66.811 92.878 71.65 98.014 71.639 z" stroke-linecap="round" />
</g>
		<g transform="matrix(1 0 0 1 316.26 479.56)"  >
<path style="stroke: none; stroke-width: 1; stroke-dasharray: none; stroke-linecap: butt; stroke-dashoffset: 0; stroke-linejoin: miter; stroke-miterlimit: 4; fill: rgb(72,171,205); fill-rule: nonzero; opacity: 1;" vector-effect="non-scaling-stroke"  transform=" translate(-50.26, -86.94)" d="M 8.415 82.195 C 12.152 82.201 15.889 82.205 19.625 82.195 C 20.337 87.978 21.974 85.99799999999999 27.782 86.01299999999999 C 33.369 86.029 36.554 88.368 37.022 82.201 C 41.501999999999995 82.201 45.982 82.201 50.461999999999996 82.201 C 59.42099999999999 82.201 68.382 82.201 77.342 82.201 C 81.821 82.201 86.30199999999999 82.199 90.781 82.199 C 95.902 82.199 99.83600000000001 79.732 99.77600000000001 85.953 C 79.13600000000001 85.879 59.46300000000001 91.685 39.18300000000001 91.682 C 29.220000000000006 91.68 19.25700000000001 91.688 9.294000000000008 91.682 C 5.207000000000008 91.68 0.7480000000000082 93.87100000000001 0.7370000000000072 88.842 C 0.723 81.471 7.845 90.809 8.415 82.195 C 12.152 82.201 8.332 83.457 8.415 82.195 z" stroke-linecap="round" />
</g>
		<g transform="matrix(1 0 0 1 621.5 420.72)"  >
<rect style="stroke: none; stroke-width: 1; stroke-dasharray: none; stroke-linecap: butt; stroke-dashoffset: 0; stroke-linejoin: miter; stroke-miterlimit: 4; fill: rgb(72,171,205); fill-rule: nonzero; opacity: 1;" vector-effect="non-scaling-stroke"  x="-0.5" y="-0.5" rx="0" ry="0" width="1" height="1" />
</g>
		<g transform="matrix(1 0 0 1 444 444)" id="f1db4655-b0bd-4632-b8ef-225b19f6e8fe"  >
<rect style="stroke: none; stroke-width: 1; stroke-dasharray: none; stroke-linecap: butt; stroke-dashoffset: 0; stroke-linejoin: miter; stroke-miterlimit: 4; fill: rgb(255,255,255); fill-rule: nonzero; opacity: 1; visibility: hidden;" vector-effect="non-scaling-stroke"  x="-540" y="-540" rx="0" ry="0" width="1080" height="1080" />
</g>
		<g transform="matrix(1 0 0 1 316 437.45)"  >
<path style="stroke: none; stroke-width: 1; stroke-dasharray: none; stroke-linecap: butt; stroke-dashoffset: 0; stroke-linejoin: miter; stroke-miterlimit: 4; fill: rgb(72,171,205); fill-rule: nonzero; opacity: 1;" vector-effect="non-scaling-stroke"  transform=" translate(-50, -44.83)" d="M 15.619 12.907 C 14.475 11.938 14.613 11.214 16.031 10.735 C 20.323 10.725 24.616 10.722999999999999 28.908 10.724 C 30.943 10.724 48.363 9.952 47.483000000000004 12.237 C 46.853 13.872 42.306000000000004 12.946 41.069 13.034 C 37.309000000000005 13.832 34.201 16.899 33.226 20.597 C 37.302 20.672 42.414 19.744 46.272999999999996 21.361 C 51.946 23.739 53.354 31.287 56.294999999999995 36.081 C 61.68899999999999 44.869 69.50999999999999 52.147000000000006 78.65899999999999 56.901 C 83.532 59.432 88.76599999999999 61.251000000000005 94.15599999999999 62.301 C 101.568 63.748000000000005 99.823 64.836 99.812 72.528 C 99.803 78.792 99.606 78.57300000000001 93.316 78.57300000000001 C 85.784 78.57300000000001 78.253 78.57300000000001 70.72 78.575 C 57.162 78.575 43.605000000000004 78.575 30.048000000000002 78.575 C 20.950000000000003 78.575 4.406000000000002 82.095 1.2270000000000003 70.075 C -1.1269999999999998 61.173 0.10100000000000042 45.804 3.2220000000000004 37.156000000000006 C 4.799 33.196000000000005 6.647 23.733000000000004 10.296 21.291000000000004 C 14.254999999999999 18.643000000000004 24.502 20.626000000000005 29.15 20.616000000000003 C 27.363 13.371 21.494 13.619 15.619 12.907 C 14.362 12.597 17.488 13.133 15.619 12.907 z M 31.135 19.445 C 32.980000000000004 17.367 33.461 14.885000000000002 35.84 12.995000000000001 C 32.775000000000006 12.945 29.709000000000003 12.945 26.643000000000004 12.995000000000001 C 27.188 13.598 30.21 16.649 31.135 19.445 z M 11.574 25.24 C 8.79 26.056 7.083 33.84 6.102 36.199 C 4.186 40.974 8.746 40.486 12.109 40.489 C 23.273 40.497 34.436 40.480999999999995 45.6 40.494 C 52.143 40.516 44.83 25.069 41.799 25.157 C 32.54 25.149 20.562 23.1 11.574 25.24 C 10.843 25.454 12.176 25.097 11.574 25.24 z M 61.771 62.174 C 61.785000000000004 57.94 61.768 53.703 61.778 49.467 C 62.036 48.092999999999996 55.849 42.894 54.861999999999995 41.791 C 55.008 47.526 52.68 60.109 61.771 62.174 z M 71.306 66.199 C 71.334 58.068 71.869 56.601 65.154 51.818 C 65.094 55.572 62.973 63.891 71.306 66.199 z M 9.207 55.801 C 4.811000000000001 56.92 5.9990000000000006 63.912000000000006 10.554 63.36 C 15.917 63.146 14.518 54.205 9.207 55.801 C 7.335 56.277 11.167 55.211 9.207 55.801 z M 39.727 55.801 C 35.018 56.975 36.81699999999999 64.416 41.541999999999994 63.299 C 46.492 62.41 44.725 54.307 39.727 55.801 C 37.757 56.291 41.696 55.211 39.727 55.801 z M 79.678 68.789 C 79.76299999999999 61.568 80.455 60.851 74.253 57.635000000000005 C 74.253 60.846 72.619 67.096 79.678 68.789 z M 86.918 70.32 C 86.85000000000001 64.258 87.992 63.18299999999999 82.31500000000001 61.19499999999999 C 82.301 63.945 80.701 69.611 86.918 70.32 z M 93.032 71.213 C 93.011 66.324 94.92099999999999 64.059 89.104 63.321999999999996 C 89.123 65.766 87.066 70.791 93.032 71.213 z M 98.014 71.639 C 97.991 68.053 99.973 64.018 94.813 64.535 C 94.861 66.811 92.878 71.65 98.014 71.639 z" stroke-linecap="round" />
</g>
		<g transform="matrix(1 0 0 1 316.26 479.56)"  >
<path style="stroke: none; stroke-width: 1; stroke-dasharray: none; stroke-linecap: butt; stroke-dashoffset: 0; stroke-linejoin: miter; stroke-miterlimit: 4; fill: rgb(72,171,205); fill-rule: nonzero; opacity: 1;" vector-effect="non-scaling-stroke"  transform=" translate(-50.26, -86.94)" d="M 8.415 82.195 C 12.152 82.201 15.889 82.205 19.625 82.195 C 20.337 87.978 21.974 85.99799999999999 27.782 86.01299999999999 C 33.369 86.029 36.554 88.368 37.022 82.201 C 41.501999999999995 82.201 45.982 82.201 50.461999999999996 82.201 C 59.42099999999999 82.201 68.382 82.201 77.342 82.201 C 81.821 82.201 86.30199999999999 82.199 90.781 82.199 C 95.902 82.199 99.83600000000001 79.732 99.77600000000001 85.953 C 79.13600000000001 85.879 59.46300000000001 91.685 39.18300000000001 91.682 C 29.220000000000006 91.68 19.25700000000001 91.688 9.294000000000008 91.682 C 5.207000000000008 91.68 0.7480000000000082 93.87100000000001 0.7370000000000072 88.842 C 0.723 81.471 7.845 90.809 8.415 82.195 C 12.152 82.201 8.332 83.457 8.415 82.195 z" stroke-linecap="round" />
</g>
		<g transform="matrix(1 0 0 1 621.5 420.72)"  >
<rect style="stroke: none; stroke-width: 1; stroke-dasharray: none; stroke-linecap: butt; stroke-dashoffset: 0; stroke-linejoin: miter; stroke-miterlimit: 4; fill: rgb(72,171,205); fill-rule: nonzero; opacity: 1;" vector-effect="non-scaling-stroke"  x="-0.5" y="-0.5" rx="0" ry="0" width="1" height="1" />
</g>
		<g transform="matrix(1 0 0 1 132 -6)" id="f1db4655-b0bd-4632-b8ef-225b19f6e8fe"  >
<rect style="stroke: none; stroke-width: 1; stroke-dasharray: none; stroke-linecap: butt; stroke-dashoffset: 0; stroke-linejoin: miter; stroke-miterlimit: 4; fill: rgb(255,255,255); fill-rule: nonzero; opacity: 1; visibility: hidden;" vector-effect="non-scaling-stroke"  x="-540" y="-540" rx="0" ry="0" width="1080" height="1080" />
</g>
		<g transform="matrix(1 0 0 1 4 -12.55)"  >
<path style="stroke: none; stroke-width: 1; stroke-dasharray: none; stroke-linecap: butt; stroke-dashoffset: 0; stroke-linejoin: miter; stroke-miterlimit: 4; fill: rgb(72,171,205); fill-rule: nonzero; opacity: 1;" vector-effect="non-scaling-stroke"  transform=" translate(-50, -44.83)" d="M 15.619 12.907 C 14.475 11.938 14.613 11.214 16.031 10.735 C 20.323 10.725 24.616 10.722999999999999 28.908 10.724 C 30.943 10.724 48.363 9.952 47.483000000000004 12.237 C 46.853 13.872 42.306000000000004 12.946 41.069 13.034 C 37.309000000000005 13.832 34.201 16.899 33.226 20.597 C 37.302 20.672 42.414 19.744 46.272999999999996 21.361 C 51.946 23.739 53.354 31.287 56.294999999999995 36.081 C 61.68899999999999 44.869 69.50999999999999 52.147000000000006 78.65899999999999 56.901 C 83.532 59.432 88.76599999999999 61.251000000000005 94.15599999999999 62.301 C 101.568 63.748000000000005 99.823 64.836 99.812 72.528 C 99.803 78.792 99.606 78.57300000000001 93.316 78.57300000000001 C 85.784 78.57300000000001 78.253 78.57300000000001 70.72 78.575 C 57.162 78.575 43.605000000000004 78.575 30.048000000000002 78.575 C 20.950000000000003 78.575 4.406000000000002 82.095 1.2270000000000003 70.075 C -1.1269999999999998 61.173 0.10100000000000042 45.804 3.2220000000000004 37.156000000000006 C 4.799 33.196000000000005 6.647 23.733000000000004 10.296 21.291000000000004 C 14.254999999999999 18.643000000000004 24.502 20.626000000000005 29.15 20.616000000000003 C 27.363 13.371 21.494 13.619 15.619 12.907 C 14.362 12.597 17.488 13.133 15.619 12.907 z M 31.135 19.445 C 32.980000000000004 17.367 33.461 14.885000000000002 35.84 12.995000000000001 C 32.775000000000006 12.945 29.709000000000003 12.945 26.643000000000004 12.995000000000001 C 27.188 13.598 30.21 16.649 31.135 19.445 z M 11.574 25.24 C 8.79 26.056 7.083 33.84 6.102 36.199 C 4.186 40.974 8.746 40.486 12.109 40.489 C 23.273 40.497 34.436 40.480999999999995 45.6 40.494 C 52.143 40.516 44.83 25.069 41.799 25.157 C 32.54 25.149 20.562 23.1 11.574 25.24 C 10.843 25.454 12.176 25.097 11.574 25.24 z M 61.771 62.174 C 61.785000000000004 57.94 61.768 53.703 61.778 49.467 C 62.036 48.092999999999996 55.849 42.894 54.861999999999995 41.791 C 55.008 47.526 52.68 60.109 61.771 62.174 z M 71.306 66.199 C 71.334 58.068 71.869 56.601 65.154 51.818 C 65.094 55.572 62.973 63.891 71.306 66.199 z M 9.207 55.801 C 4.811000000000001 56.92 5.9990000000000006 63.912000000000006 10.554 63.36 C 15.917 63.146 14.518 54.205 9.207 55.801 C 7.335 56.277 11.167 55.211 9.207 55.801 z M 39.727 55.801 C 35.018 56.975 36.81699999999999 64.416 41.541999999999994 63.299 C 46.492 62.41 44.725 54.307 39.727 55.801 C 37.757 56.291 41.696 55.211 39.727 55.801 z M 79.678 68.789 C 79.76299999999999 61.568 80.455 60.851 74.253 57.635000000000005 C 74.253 60.846 72.619 67.096 79.678 68.789 z M 86.918 70.32 C 86.85000000000001 64.258 87.992 63.18299999999999 82.31500000000001 61.19499999999999 C 82.301 63.945 80.701 69.611 86.918 70.32 z M 93.032 71.213 C 93.011 66.324 94.92099999999999 64.059 89.104 63.321999999999996 C 89.123 65.766 87.066 70.791 93.032 71.213 z M 98.014 71.639 C 97.991 68.053 99.973 64.018 94.813 64.535 C 94.861 66.811 92.878 71.65 98.014 71.639 z" stroke-linecap="round" />
</g>
		<g transform="matrix(1 0 0 1 4.26 29.56)"  >
<path style="stroke: none; stroke-width: 1; stroke-dasharray: none; stroke-linecap: butt; stroke-dashoffset: 0; stroke-linejoin: miter; stroke-miterlimit: 4; fill: rgb(72,171,205); fill-rule: nonzero; opacity: 1;" vector-effect="non-scaling-stroke"  transform=" translate(-50.26, -86.94)" d="M 8.415 82.195 C 12.152 82.201 15.889 82.205 19.625 82.195 C 20.337 87.978 21.974 85.99799999999999 27.782 86.01299999999999 C 33.369 86.029 36.554 88.368 37.022 82.201 C 41.501999999999995 82.201 45.982 82.201 50.461999999999996 82.201 C 59.42099999999999 82.201 68.382 82.201 77.342 82.201 C 81.821 82.201 86.30199999999999 82.199 90.781 82.199 C 95.902 82.199 99.83600000000001 79.732 99.77600000000001 85.953 C 79.13600000000001 85.879 59.46300000000001 91.685 39.18300000000001 91.682 C 29.220000000000006 91.68 19.25700000000001 91.688 9.294000000000008 91.682 C 5.207000000000008 91.68 0.7480000000000082 93.87100000000001 0.7370000000000072 88.842 C 0.723 81.471 7.845 90.809 8.415 82.195 C 12.152 82.201 8.332 83.457 8.415 82.195 z" stroke-linecap="round" />
</g>
		<g transform="matrix(1 0 0 1 309.5 -29.28)"  >
<rect style="stroke: none; stroke-width: 1; stroke-dasharray: none; stroke-linecap: butt; stroke-dashoffset: 0; stroke-linejoin: miter; stroke-miterlimit: 4; fill: rgb(72,171,205); fill-rule: nonzero; opacity: 1;" vector-effect="non-scaling-stroke"  x="-0.5" y="-0.5" rx="0" ry="0" width="1" height="1" />
</g>
</g>
</g>
</svg>